<svg width="80" height="81" viewBox="0 0 80 81" fill="none" xmlns="http://www.w3.org/2000/svg">
<path d="M40 50.8575C45.5228 50.8575 50 46.3804 50 40.8575C50 35.3347 45.5228 30.8575 40 30.8575C34.4772 30.8575 30 35.3347 30 40.8575C30 46.3804 34.4772 50.8575 40 50.8575Z" stroke="#EDB021" stroke-width="2" stroke-linecap="round" stroke-linejoin="round"/>
<path d="M64.6666 50.8575C64.2229 51.8629 64.0906 52.9782 64.2866 54.0595C64.4827 55.1408 64.9982 56.1386 65.7666 56.9242L65.9666 57.1242C66.5865 57.7434 67.0782 58.4786 67.4137 59.2879C67.7492 60.0973 67.9219 60.9648 67.9219 61.8409C67.9219 62.717 67.7492 63.5845 67.4137 64.3938C67.0782 65.2031 66.5865 65.9384 65.9666 66.5575C65.3475 67.1774 64.6122 67.6691 63.8029 68.0046C62.9936 68.3401 62.1261 68.5128 61.25 68.5128C60.3739 68.5128 59.5064 68.3401 58.697 68.0046C57.8877 67.6691 57.1525 67.1774 56.5333 66.5575L56.3333 66.3575C55.5477 65.5891 54.5499 65.0736 53.4686 64.8775C52.3873 64.6815 51.272 64.8138 50.2666 65.2575C49.2807 65.6801 48.4399 66.3817 47.8477 67.276C47.2554 68.1703 46.9376 69.2183 46.9333 70.2909V70.8575C46.9333 72.6257 46.2309 74.3213 44.9807 75.5716C43.7304 76.8218 42.0348 77.5242 40.2666 77.5242C38.4985 77.5242 36.8028 76.8218 35.5526 75.5716C34.3024 74.3213 33.6 72.6257 33.6 70.8575V70.5575C33.5742 69.4542 33.217 68.3842 32.575 67.4866C31.933 66.5889 31.0358 65.9052 30 65.5242C28.9946 65.0805 27.8793 64.9481 26.798 65.1442C25.7167 65.3403 24.7189 65.8558 23.9333 66.6242L23.7333 66.8242C23.1142 67.4441 22.3789 67.9358 21.5696 68.2713C20.7603 68.6068 19.8927 68.7795 19.0166 68.7795C18.1405 68.7795 17.273 68.6068 16.4637 68.2713C15.6544 67.9358 14.9191 67.4441 14.3 66.8242C13.6801 66.2051 13.1884 65.4698 12.8529 64.6605C12.5174 63.8512 12.3447 62.9837 12.3447 62.1075C12.3447 61.2314 12.5174 60.3639 12.8529 59.5546C13.1884 58.7453 13.6801 58.01 14.3 57.3909L14.5 57.1909C15.2684 56.4053 15.7839 55.4075 15.98 54.3262C16.1761 53.2449 16.0437 52.1296 15.6 51.1242C15.1774 50.1383 14.4758 49.2975 13.5815 48.7052C12.6872 48.113 11.6393 47.7952 10.5666 47.7909H9.99998C8.23187 47.7909 6.53618 47.0885 5.28593 45.8383C4.03569 44.588 3.33331 42.8923 3.33331 41.1242C3.33331 39.3561 4.03569 37.6604 5.28593 36.4102C6.53618 35.1599 8.23187 34.4576 9.99998 34.4576H10.3C11.4033 34.4317 12.4733 34.0746 13.371 33.4326C14.2686 32.7906 14.9524 31.8933 15.3333 30.8576C15.777 29.8522 15.9094 28.7369 15.7133 27.6556C15.5173 26.5743 15.0018 25.5765 14.2333 24.7909L14.0333 24.5909C13.4135 23.9717 12.9217 23.2365 12.5862 22.4272C12.2508 21.6178 12.0781 20.7503 12.0781 19.8742C12.0781 18.9981 12.2508 18.1306 12.5862 17.3213C12.9217 16.512 13.4135 15.7767 14.0333 15.1576C14.6525 14.5377 15.3877 14.046 16.197 13.7105C17.0064 13.375 17.8739 13.2023 18.75 13.2023C19.6261 13.2023 20.4936 13.375 21.3029 13.7105C22.1122 14.046 22.8475 14.5377 23.4666 15.1576L23.6666 15.3576C24.4522 16.126 25.45 16.6415 26.5313 16.8376C27.6127 17.0336 28.7279 16.9013 29.7333 16.4576H30C30.9859 16.035 31.8267 15.3334 32.419 14.4391C33.0112 13.5448 33.329 12.4968 33.3333 11.4242V10.8576C33.3333 9.08944 34.0357 7.39375 35.2859 6.14351C36.5362 4.89327 38.2319 4.19089 40 4.19089C41.7681 4.19089 43.4638 4.89327 44.714 6.14351C45.9643 7.39375 46.6666 9.08944 46.6666 10.8576V11.1576C46.6709 12.2302 46.9887 13.2781 47.581 14.1724C48.1733 15.0667 49.0141 15.7683 50 16.1909C51.0054 16.6346 52.1206 16.767 53.2019 16.5709C54.2833 16.3748 55.281 15.8593 56.0666 15.0909L56.2666 14.8909C56.8858 14.271 57.6211 13.7793 58.4304 13.4438C59.2397 13.1083 60.1072 12.9356 60.9833 12.9356C61.8594 12.9356 62.7269 13.1083 63.5362 13.4438C64.3456 13.7793 65.0808 14.271 65.7 14.8909C66.3198 15.51 66.8115 16.2453 67.147 17.0546C67.4825 17.8639 67.6552 18.7314 67.6552 19.6076C67.6552 20.4837 67.4825 21.3512 67.147 22.1605C66.8115 22.9698 66.3198 23.7051 65.7 24.3242L65.5 24.5242C64.7315 25.3098 64.216 26.3076 64.02 27.3889C63.8239 28.4702 63.9563 29.5855 64.4 30.5909V30.8576C64.8225 31.8434 65.5241 32.6843 66.4184 33.2765C67.3127 33.8688 68.3607 34.1866 69.4333 34.1909H70C71.7681 34.1909 73.4638 34.8933 74.714 36.1435C75.9643 37.3937 76.6666 39.0894 76.6666 40.8576C76.6666 42.6257 75.9643 44.3214 74.714 45.5716C73.4638 46.8218 71.7681 47.5242 70 47.5242H69.7C68.6274 47.5285 67.5794 47.8463 66.6851 48.4386C65.7908 49.0308 65.0892 49.8717 64.6666 50.8575V50.8575Z" stroke="#EDB021" stroke-width="2" stroke-linecap="round" stroke-linejoin="round"/>
</svg>
