<svg width="98" height="98" viewBox="0 0 98 98" fill="none" xmlns="http://www.w3.org/2000/svg">
<g clip-path="url(#clip0_656_1638)">
<path d="M62.6108 32.9768C61.8596 33.4206 61.3123 34.1412 61.0865 34.984C60.8607 35.8268 60.9743 36.7245 61.403 37.4844L65.1742 44.0164C65.618 44.7676 66.3386 45.3149 67.1814 45.5407C68.0242 45.7665 68.9219 45.6529 69.6819 45.2242L85.0728 36.3382C85.7332 40.3498 85.1553 44.4674 83.4161 48.1422C81.677 51.817 78.8593 54.8745 75.3384 56.9073C71.8175 58.94 67.7608 59.8515 63.7087 59.5202C59.6567 59.189 55.8018 57.6307 52.6579 55.053L24.4479 71.34C22.8238 72.2777 20.8937 72.5318 19.0823 72.0464C17.2708 71.561 15.7264 70.3759 14.7887 68.7518C13.851 67.1277 13.5969 65.1976 14.0823 63.3862C14.5677 61.5747 15.7528 60.0303 17.3769 59.0926L45.5868 42.8056C44.9265 38.794 45.5044 34.6764 47.2435 31.0016C48.9826 27.3268 51.8004 24.2693 55.3212 22.2365C58.8421 20.2038 62.8989 19.2923 66.9509 19.6236C71.003 19.9548 74.8578 21.5131 78.0017 24.0908L62.6516 32.9532L62.6108 32.9768Z" stroke="#EDB021" stroke-width="2" stroke-linecap="round" stroke-linejoin="round"/>
</g>
<defs>
<clipPath id="clip0_656_1638">
<rect width="80" height="80" fill="white" transform="translate(20.7157 0.0102539) rotate(15)"/>
</clipPath>
</defs>
</svg>
