<svg width="73" height="73" viewBox="0 0 73 73" fill="none" xmlns="http://www.w3.org/2000/svg">
<g clip-path="url(#clip0_630_2280)">
<path d="M2.27157 2.14993V28.8286V28.6332V65.8661V2.14993ZM13.8359 38.6988H30.1555C30.496 38.3079 30.8383 37.9333 31.1825 37.575C31.5266 37.2166 31.9052 36.8746 32.3182 36.5489H13.8359V38.6988ZM13.8359 54.6278H26.2263C26.2263 54.3021 26.2091 53.9438 26.1747 53.5529C26.1403 53.162 26.1231 52.8037 26.1231 52.4779H13.8359V54.6278ZM5.57567 68.0161C4.00794 68.0161 2.68675 67.5075 1.61209 66.4903C0.537365 65.4732 0 64.2227 0 62.739V5.27711C0 3.79333 0.537365 2.54285 1.61209 1.52567C2.68675 0.508557 4.00794 0 5.57567 0H39.2362L55.3437 15.245V29.2195C54.9995 29.1544 54.6209 29.0892 54.2079 29.0241C53.7949 28.9589 53.4163 28.8938 53.0721 28.8286V16.2222H38.1004V2.14993H5.57567C4.74965 2.14993 3.99246 2.47568 3.3041 3.12718C2.61575 3.77867 2.27157 4.49531 2.27157 5.27711V62.739C2.27157 63.5207 2.61575 64.2374 3.3041 64.8889C3.99246 65.5404 4.74965 65.8661 5.57567 65.8661H31.389C31.8708 66.3222 32.3527 66.7131 32.8345 67.0388C33.3164 67.3646 33.8326 67.6903 34.3833 68.0161H5.57567ZM50.3876 63.2276C53.8293 63.2276 56.7376 62.1037 59.1124 59.8561C61.4873 57.6084 62.6747 54.8559 62.6747 51.5984C62.6747 48.3409 61.4873 45.5884 59.1124 43.3407C56.7376 41.093 53.8293 39.9692 50.3876 39.9692C46.9458 39.9692 44.0375 41.093 41.6627 43.3407C39.2878 45.5884 38.1004 48.3409 38.1004 51.5984C38.1004 54.8559 39.2878 57.6084 41.6627 59.8561C44.0375 62.1037 46.9458 63.2276 50.3876 63.2276ZM71.4512 73L59.8868 62.0549C58.579 63.0973 57.1275 63.9116 55.5324 64.498C53.9372 65.0843 52.2222 65.3775 50.3876 65.3775C46.3435 65.3775 42.906 64.0362 40.0751 61.3536C37.2443 58.671 35.8289 55.4135 35.8289 51.5812C35.8289 47.7488 37.2461 44.4971 40.0805 41.826C42.9149 39.1548 46.3567 37.8193 50.4058 37.8193C54.4549 37.8193 57.8906 39.1589 60.7129 41.8382C63.5351 44.5175 64.9463 47.7709 64.9463 51.5984C64.9463 53.3348 64.6365 54.9579 64.017 56.4677C63.3975 57.9774 62.537 59.3512 61.4356 60.589L73 71.5341L71.4512 73Z" fill="#EDB021"/>
</g>
<defs>
<clipPath id="clip0_630_2280">
<rect width="73" height="73" fill="white"/>
</clipPath>
</defs>
</svg>
