<svg width="138" height="140" viewBox="0 0 138 140" fill="none" xmlns="http://www.w3.org/2000/svg">
<ellipse cx="69.1918" cy="70" rx="68.3219" ry="70" fill="#EDB021"/>
<path d="M101.297 87.7887L96.3827 82.73C96.3595 82.7062 96.3132 82.6825 96.29 82.6587C96.2813 82.64 96.2683 82.6238 96.2522 82.6114C96.236 82.599 96.2172 82.5908 96.1973 82.5875L92.9056 79.1912L84.7692 70.855L100.277 54.9425C100.82 54.393 101.252 53.7385 101.546 53.0168C101.841 52.2952 101.992 51.5209 101.992 50.7387C101.992 49.9566 101.841 49.1822 101.546 48.4606C101.252 47.7389 100.82 47.0844 100.277 46.535L92.0943 38.1512C90.9912 37.0655 89.5209 36.4592 87.9913 36.4592C86.4617 36.4592 84.9914 37.0655 83.8883 38.1512L72.4139 49.9075L68.3805 54.0637L58.83 44.2787L58.3896 43.8987L58.0883 43.78L44.4117 38.3887L36.9707 35.4437C36.7634 35.3597 36.5366 35.3397 36.3183 35.3861C36.1 35.4325 35.8997 35.5434 35.7421 35.705C35.581 35.8692 35.4692 36.0772 35.4199 36.3045C35.3706 36.5318 35.3859 36.7688 35.464 36.9875L38.3152 44.5637V44.5875L38.3847 44.73L43.6004 58.6237C43.6747 58.9259 43.8462 59.1936 44.0872 59.3837L53.6376 69.1687L48.0047 74.94C47.9451 74.9805 47.8906 75.0283 47.8424 75.0825L43.0904 79.975C43.0307 80.0154 42.9762 80.0632 42.9281 80.1175L37.9906 85.1762C37.9378 85.2255 37.8911 85.2814 37.8516 85.3424L36.368 86.8387C35.8247 87.3881 35.3933 88.0427 35.0989 88.7643C34.8044 89.4859 34.6528 90.2603 34.6528 91.0425C34.6528 91.8246 34.8044 92.599 35.0989 93.3206C35.3933 94.0422 35.8247 94.6968 36.368 95.2462L44.5508 103.63C45.087 104.187 45.7259 104.629 46.4302 104.93C47.1345 105.232 47.8903 105.387 48.6537 105.387C49.4171 105.387 50.1729 105.232 50.8773 104.93C51.5816 104.629 52.2204 104.187 52.7567 103.63L70.0263 85.9599L81.5471 97.7637C81.5703 97.7875 81.5935 97.8349 81.6166 97.8587L86.5541 102.894C87.0867 103.447 87.7221 103.886 88.4228 104.183C89.1235 104.481 89.8753 104.632 90.6339 104.627C91.3956 104.63 92.1504 104.478 92.8545 104.181C93.5587 103.883 94.1985 103.446 94.7369 102.894L101.297 96.1725C102.38 95.0595 102.988 93.5521 102.988 91.9806C102.988 90.4091 102.38 88.9017 101.297 87.7887ZM73.2484 52.425L75.7056 54.9425C75.9286 55.1355 76.2146 55.2352 76.5063 55.2216C76.7979 55.2079 77.0738 55.082 77.2788 54.869C77.4838 54.656 77.6028 54.3715 77.612 54.0725C77.6211 53.7735 77.5198 53.482 77.3282 53.2562L74.8711 50.7387L78.1627 47.39L80.6199 49.9075C80.84 50.1188 81.1296 50.2375 81.4312 50.24C81.7397 50.2377 82.0367 50.1193 82.2657 49.9075C82.4779 49.6806 82.5964 49.3786 82.5964 49.0643C82.5964 48.7501 82.4779 48.448 82.2657 48.2212L79.7854 45.7037L83.077 42.3312L88.8026 48.2212C88.9119 48.3341 89.0419 48.4237 89.1851 48.4848C89.3283 48.546 89.482 48.5775 89.6371 48.5775C89.7888 48.5772 89.9389 48.5455 90.0784 48.4843C90.2178 48.4231 90.3437 48.3336 90.4485 48.2212C90.5571 48.1108 90.6433 47.9795 90.7022 47.8348C90.761 47.6901 90.7913 47.5348 90.7913 47.3781C90.7913 47.2213 90.761 47.0661 90.7022 46.9214C90.6433 46.7767 90.5571 46.6453 90.4485 46.535L84.7228 40.6687L85.5342 39.8137C86.1861 39.1466 87.0699 38.7718 87.9913 38.7718C88.9128 38.7718 89.7965 39.1466 90.4485 39.8137L98.6544 48.2212C99.3056 48.8892 99.6713 49.7946 99.6713 50.7387C99.6713 51.6828 99.3056 52.5882 98.6544 53.2562L83.1234 69.1687L70.0031 55.7262L73.2484 52.425ZM67.3373 56.3437C67.3688 56.4435 67.4247 56.5335 67.4996 56.605L67.5228 56.6287L68.3341 57.46L74.0597 63.3262C74.1295 63.403 74.2173 63.4602 74.3147 63.4925L81.5007 70.855L82.3121 71.6862L83.1234 72.5175L90.4716 80.0462L88.8258 81.7087L81.5007 74.2037H81.4775L80.6662 73.3725V73.3487L79.8549 72.5412V72.5175L66.7347 59.0987V59.075L65.9233 58.2675V58.2437L65.112 57.4125H65.0888L60.0354 52.235V52.2112C59.3832 51.5437 59.0163 50.6382 59.0155 49.6937V47.8175L66.7347 55.7262L67.3373 56.3437ZM82.2657 88.43L74.9406 80.925H74.9174L74.1061 80.0937V80.07L73.2948 79.2625V79.2387L60.1745 65.82V65.7962L59.3632 64.9887V64.965L58.5519 64.1337H58.5287L53.4753 58.9325L53.4058 58.8612C52.8003 58.1971 52.461 57.3237 52.4554 56.415V54.04C52.4554 53.725 52.5775 53.423 52.7948 53.2003C53.0122 52.9776 53.307 52.8525 53.6144 52.8525H55.9325C56.8098 52.8497 57.6552 53.1894 58.2969 53.8025L58.3896 53.8975L63.4662 59.0987L64.2775 59.93L64.2311 59.9775L65.0425 60.8087L65.0888 60.7612L78.2091 74.2037L79.0204 75.035L79.8549 75.89L87.18 83.395L82.2657 88.43ZM42.4645 40.17C41.9019 41.2018 41.0662 42.0498 40.0537 42.6162L38.5702 38.6262L42.4645 40.17ZM44.6667 41.025L56.6974 45.775V49.6937C56.6975 49.9802 56.7208 50.2662 56.767 50.5487C56.4912 50.5014 56.2121 50.4776 55.9325 50.4775H53.6144C52.6922 50.4775 51.8078 50.8528 51.1557 51.5209C50.5036 52.189 50.1373 53.0951 50.1373 54.04V56.415C50.1374 56.7014 50.1607 56.9874 50.2068 57.27C49.9311 57.2226 49.652 57.1988 49.3723 57.1987H45.5475L40.9114 44.8487C42.5199 44.004 43.8323 42.6677 44.6667 41.025ZM51.1109 101.967C50.4455 102.608 49.5668 102.965 48.6537 102.965C47.7407 102.965 46.862 102.608 46.1966 101.967L37.9906 93.56C37.3395 92.892 36.9738 91.9865 36.9738 91.0425C36.9738 90.0984 37.3395 89.1929 37.9906 88.525L38.8251 87.6937L44.5508 93.56C44.6577 93.6727 44.7856 93.7623 44.927 93.8235C45.0683 93.8848 45.2202 93.9163 45.3737 93.9163C45.5271 93.9163 45.679 93.8848 45.8204 93.8235C45.9617 93.7623 46.0897 93.6727 46.1966 93.56C46.4088 93.3331 46.5273 93.031 46.5273 92.7168C46.5273 92.4026 46.4088 92.1005 46.1966 91.8737L40.4478 86.0075L43.7394 82.635L46.1966 85.1762C46.4167 85.3875 46.7063 85.5062 47.0079 85.5087C47.3165 85.5064 47.6134 85.3881 47.8424 85.1762C48.0547 84.9494 48.1731 84.6473 48.1731 84.3331C48.1731 84.0189 48.0547 83.7168 47.8424 83.49L45.3853 80.9725L48.6537 77.6L51.1109 80.1175C51.3249 80.3412 51.6165 80.4692 51.9222 80.4737C52.0774 80.4737 52.231 80.4422 52.3742 80.3811C52.5175 80.3199 52.6475 80.2303 52.7567 80.1175C52.9691 79.8955 53.088 79.597 53.088 79.2862C53.088 78.9754 52.9691 78.6769 52.7567 78.455L50.2996 75.9375L55.2602 70.8312L68.3805 84.2737L51.1109 101.967ZM70.8376 83.4425L70.0263 82.6112L56.9061 69.1687L56.0947 68.3375L55.2602 67.4825L47.5411 59.5737H49.3723C50.2942 59.5745 51.178 59.9504 51.8295 60.6187L56.9061 65.82L57.5088 66.4375C57.5401 66.5373 57.596 66.6273 57.671 66.6987L58.4823 67.53L60.9395 70.0475C61.0093 70.1242 61.097 70.1815 61.1945 70.2137L71.649 80.925L72.4603 81.7562L73.2948 82.6112L80.6199 90.1162L78.9972 91.8025L71.649 84.2737L70.8376 83.4425ZM80.6199 93.465L83.0075 90.995L83.1234 90.8762L89.5676 84.2737L89.6835 84.1549L92.0943 81.7087L93.9256 83.5849L82.4511 95.3412L80.6199 93.465ZM99.6512 94.4862L93.0911 101.207C92.7696 101.54 92.387 101.805 91.9652 101.985C91.5434 102.165 91.0909 102.258 90.6339 102.258C90.1769 102.258 89.7244 102.165 89.3026 101.985C88.8808 101.805 88.4982 101.54 88.1768 101.207L84.0738 97.0037L95.5482 85.2475L99.6512 89.4512C99.9761 89.7805 100.234 90.1726 100.41 90.6047C100.586 91.0368 100.677 91.5004 100.677 91.9687C100.677 92.437 100.586 92.9006 100.41 93.3327C100.234 93.7648 99.9761 94.1569 99.6512 94.4862Z" fill="black"/>
</svg>
