<svg width="138" height="140" viewBox="0 0 138 140" fill="none" xmlns="http://www.w3.org/2000/svg">
<ellipse cx="68.8082" cy="70" rx="68.3219" ry="70" fill="#EDB021"/>
<path d="M60.4677 64.311C57.7941 64.311 55.1134 64.311 52.4398 64.311C48.5938 64.311 44.7479 64.311 40.909 64.311C40.5016 64.311 40.0941 64.311 39.6938 64.311C39.6366 64.311 39.5865 64.311 39.5293 64.311C39.4936 64.311 39.465 64.311 39.4293 64.311C39.2649 64.2964 39.2934 64.3037 39.5151 64.333C39.5008 64.3477 39.3077 64.2891 39.2791 64.2817C39.2506 64.2744 39.0504 64.2305 39.0504 64.2085C39.1076 64.2305 39.1648 64.2598 39.2148 64.2817C39.1576 64.2524 39.1004 64.2231 39.0504 64.1938C39.0218 64.1792 38.8145 64.0693 38.8145 64.04C38.8645 64.0767 38.9074 64.1133 38.9575 64.1499C38.9074 64.106 38.8645 64.062 38.8216 64.0181C38.8288 64.0254 38.693 63.8862 38.693 63.8789C38.8145 64.0547 38.8359 64.0767 38.743 63.9448C38.7073 63.8936 38.6715 63.835 38.6429 63.7837C38.6286 63.7544 38.6143 63.7251 38.6 63.6958C38.5357 63.5493 38.5428 63.5786 38.6286 63.7837C38.6072 63.7837 38.55 63.5273 38.5428 63.5054C38.5428 63.52 38.4928 63.3149 38.5071 63.3076C38.5142 63.3735 38.5285 63.4321 38.5357 63.498C38.5285 63.4321 38.5285 63.3589 38.5285 63.293C38.5285 63.2783 38.5285 63.2637 38.5285 63.249C38.5285 63.1392 38.5285 63.022 38.5285 62.9121C38.5285 62.3848 38.5285 61.8647 38.5285 61.3374C38.5285 57.2871 38.5285 53.2295 38.5285 49.1792C38.5285 47.3701 38.5285 45.561 38.5285 43.752C38.5285 43.2393 38.5285 42.7266 38.5285 42.2139C38.5285 42.104 38.5285 41.9868 38.5285 41.877C38.5285 41.8623 38.5285 41.8477 38.5285 41.8403C38.5285 41.8037 38.5285 41.7744 38.5285 41.7378C38.5428 41.606 38.5357 41.606 38.5214 41.7305C38.5142 41.7598 38.5142 41.7964 38.5071 41.8257C38.5142 41.7598 38.5285 41.6938 38.5428 41.6279C38.55 41.5986 38.6072 41.3496 38.6286 41.3496C38.5428 41.5474 38.5357 41.5767 38.6 41.4375C38.6286 41.3789 38.6572 41.3276 38.693 41.269C38.7073 41.2397 38.7287 41.2178 38.743 41.1885C38.8145 41.0859 38.8145 41.0859 38.743 41.1812C38.7216 41.2031 38.7073 41.2324 38.6858 41.2544C38.7287 41.2031 38.7716 41.1592 38.8145 41.1152C38.8359 41.0933 38.8574 41.0713 38.8788 41.0493C38.9932 40.9468 38.9718 40.9614 38.8073 41.0933C38.8073 41.064 39.0146 40.9541 39.0432 40.9395C39.0718 40.9248 39.1004 40.9102 39.129 40.8955C39.272 40.8296 39.2434 40.8369 39.0432 40.9248C39.0861 40.9248 39.1719 40.8809 39.222 40.8662C39.2506 40.8589 39.4936 40.7783 39.5079 40.8003C39.2863 40.8296 39.2577 40.8369 39.4221 40.8223C39.4579 40.8223 39.4865 40.8223 39.5222 40.8223C39.5794 40.8223 39.6437 40.8223 39.7009 40.8223C40.1155 40.8223 40.5302 40.8223 40.9448 40.8223C42.639 40.8223 44.3261 40.8223 46.0203 40.8223C50.0521 40.8223 54.0768 40.8223 58.1087 40.8223C58.895 40.8223 59.6885 40.8076 60.4749 40.8223C60.5106 40.8223 60.5392 40.8223 60.5749 40.8223C60.7394 40.8369 60.7108 40.8296 60.4892 40.8003C60.5035 40.7783 60.7465 40.8589 60.7751 40.8662C60.8037 40.8735 60.8394 40.8882 60.868 40.8955C61.011 40.9541 60.9896 40.9395 60.7894 40.8589C60.8037 40.8442 60.9753 40.9614 60.9967 40.9688C61.0253 40.9834 61.1897 41.0713 61.1897 41.1006C61.1397 41.064 61.0968 41.0273 61.0468 40.9907C61.0968 41.0347 61.1397 41.0786 61.1826 41.1226C61.204 41.1445 61.2255 41.1665 61.2469 41.1885C61.347 41.3057 61.3327 41.2837 61.204 41.1152C61.2541 41.1152 61.3756 41.4009 61.4042 41.4448C61.5257 41.6426 61.347 41.3569 61.3756 41.3569C61.397 41.3569 61.4542 41.6133 61.4614 41.6353C61.4685 41.6646 61.4757 41.7012 61.4828 41.7305C61.5114 41.8916 61.5043 41.8623 61.4757 41.6353C61.4828 41.6353 61.4828 41.8403 61.4828 41.8403C61.4828 41.855 61.4828 41.877 61.4828 41.8916C61.4828 42.2212 61.4828 42.5581 61.4828 42.8877C61.4828 46.6963 61.4828 50.5049 61.4828 54.3135C61.4828 57.2944 61.5186 60.2754 61.4828 63.2563C61.4828 63.271 61.4828 63.2856 61.4828 63.293C61.4828 63.3296 61.4828 63.3589 61.4828 63.3955C61.4685 63.564 61.4757 63.5347 61.5043 63.3076C61.5257 63.3223 61.4471 63.5713 61.4399 63.6006C61.4328 63.6372 61.3113 63.9229 61.4113 63.7031C61.5114 63.4761 61.3756 63.7617 61.3613 63.791C61.347 63.8203 61.2398 64.0327 61.2112 64.0327C61.2469 63.9814 61.2827 63.9375 61.3184 63.8862C61.2755 63.9375 61.2326 63.9814 61.1897 64.0254C61.1683 64.0474 61.1468 64.0693 61.1254 64.0913C61.011 64.1938 61.0325 64.1792 61.1969 64.0474C61.1969 64.062 61.0682 64.1426 61.0396 64.1572C61.0182 64.1719 60.8037 64.311 60.7894 64.2964C60.8466 64.2744 60.9038 64.2451 60.9538 64.2231C60.8966 64.2451 60.8323 64.2671 60.7751 64.2817C60.7465 64.2891 60.5035 64.3696 60.4892 64.3477C60.5535 64.3403 60.6107 64.3257 60.675 64.3184C60.6035 64.311 60.5392 64.311 60.4677 64.311C59.7171 64.3257 59.0022 64.9702 59.038 65.7759C59.0737 66.5596 59.6671 67.2554 60.4677 67.2407C62.598 67.1968 64.2922 65.4683 64.328 63.2856C64.3351 63.0366 64.328 62.7949 64.328 62.5459C64.328 60.9932 64.328 59.4478 64.328 57.895C64.328 53.5811 64.328 49.2744 64.328 44.9604C64.328 43.9277 64.3423 42.895 64.328 41.8623C64.3065 40.1411 63.2843 38.6616 61.7044 38.083C61.1611 37.8853 60.5892 37.8706 60.0245 37.8706C56.5145 37.8706 53.0045 37.8706 49.4946 37.8706C46.2276 37.8706 42.9535 37.8706 39.6866 37.8706C38.55 37.8706 37.4277 38.2734 36.6627 39.167C35.9622 39.98 35.6619 40.9688 35.6619 42.0381C35.6619 43.2905 35.6619 44.543 35.6619 45.7954C35.6619 50.1387 35.6619 54.4819 35.6619 58.8252C35.6619 60.1875 35.6619 61.5498 35.6619 62.9121C35.6619 63.6665 35.7549 64.3843 36.0837 65.0728C36.7271 66.4277 38.1354 67.2188 39.5794 67.2334C42.6676 67.2554 45.763 67.2334 48.8512 67.2334C52.5113 67.2334 56.1714 67.2334 59.8243 67.2334C60.0388 67.2334 60.2533 67.2334 60.4606 67.2334C61.2112 67.2334 61.926 66.5596 61.8903 65.7686C61.8617 64.9849 61.2684 64.311 60.4677 64.311ZM60.4677 73.7593C57.6869 73.7593 54.9061 73.7593 52.1252 73.7593C48.2793 73.7593 44.4333 73.7593 40.5873 73.7593C40.2514 73.7593 39.9154 73.7593 39.5794 73.7593C37.9209 73.7739 36.5055 74.7847 35.905 76.3521C35.519 77.3701 35.6619 78.6812 35.6619 79.7578C35.6619 83.918 35.6619 88.0781 35.6619 92.2456C35.6619 94.04 35.6619 95.8418 35.6619 97.6362C35.6619 98.0903 35.6619 98.5371 35.6619 98.9912C35.6619 100.104 36.0122 101.174 36.7914 101.972C37.5778 102.778 38.6215 103.129 39.7152 103.129C40.1513 103.129 40.5873 103.129 41.0163 103.129C42.7677 103.129 44.5262 103.129 46.2777 103.129C50.3524 103.129 54.4343 103.129 58.509 103.129C59.7171 103.129 61.0039 103.261 62.1333 102.734C63.4987 102.097 64.3137 100.632 64.328 99.123C64.328 98.7788 64.328 98.4346 64.328 98.0903C64.328 94.1499 64.328 90.2095 64.328 86.269C64.328 83.4199 64.378 80.5708 64.328 77.7217C64.2922 75.5317 62.598 73.8032 60.4677 73.7593C59.7171 73.7446 59.0022 74.4478 59.038 75.2241C59.0737 76.0298 59.6671 76.6743 60.4677 76.689C60.5035 76.689 60.532 76.689 60.5678 76.689C60.7322 76.7036 60.7036 76.6963 60.482 76.667C60.4963 76.645 60.7394 76.7256 60.768 76.7329C60.7965 76.7402 60.8323 76.7549 60.8609 76.7622C61.0039 76.8208 60.9824 76.8062 60.7823 76.7256C60.7965 76.7109 60.9681 76.8281 60.9896 76.8354C61.0182 76.8501 61.1826 76.938 61.1826 76.9673C61.1325 76.9307 61.0896 76.894 61.0396 76.8574C61.0896 76.9014 61.1325 76.9453 61.1754 76.9893C61.1969 77.0112 61.2183 77.0332 61.2398 77.0552C61.3398 77.1724 61.3255 77.1504 61.1969 76.9819C61.2469 76.9819 61.3684 77.2676 61.397 77.3115C61.5186 77.5093 61.3398 77.2236 61.3684 77.2236C61.3899 77.2236 61.4471 77.48 61.4542 77.502C61.4614 77.5312 61.4685 77.5679 61.4757 77.5972C61.5043 77.7583 61.4971 77.729 61.4685 77.502C61.4757 77.502 61.4757 77.707 61.4757 77.707C61.4757 77.7217 61.4757 77.7437 61.4757 77.7583C61.4757 78.0879 61.4757 78.4248 61.4757 78.7544C61.4757 80.3657 61.4757 81.9697 61.4757 83.5811C61.4757 87.7852 61.4757 91.9819 61.4757 96.186C61.4757 97.1675 61.49 98.1416 61.4757 99.123C61.4757 99.1377 61.4757 99.1523 61.4757 99.1597C61.4757 99.1963 61.4757 99.2256 61.4757 99.2622C61.4614 99.4307 61.4685 99.4014 61.4971 99.1743C61.5186 99.189 61.4399 99.438 61.4328 99.4673C61.4256 99.5039 61.3041 99.7896 61.4042 99.5698C61.5043 99.3428 61.3255 99.7017 61.3041 99.7383C61.2898 99.7676 61.2684 99.7896 61.2541 99.8188C61.1683 99.9434 61.1826 99.9214 61.3041 99.7529C61.3113 99.7676 61.1254 99.9434 61.1111 99.958C60.9038 100.192 61.3756 99.8042 61.1111 99.9653C61.0539 99.9946 61.0039 100.031 60.9538 100.068C60.9252 100.083 60.8966 100.097 60.868 100.112C60.7251 100.178 60.7537 100.17 60.9538 100.083C60.9538 100.104 60.7036 100.163 60.6822 100.17C60.6536 100.178 60.6178 100.185 60.5892 100.192C60.432 100.222 60.4606 100.214 60.6822 100.185C60.6536 100.17 60.5249 100.192 60.482 100.192C60.2533 100.2 60.0173 100.192 59.7886 100.192C56.2214 100.192 52.6471 100.192 49.0799 100.192C45.9488 100.192 42.8177 100.192 39.6866 100.192C39.6008 100.192 39.5151 100.192 39.4364 100.192C39.1004 100.2 39.7438 100.273 39.4293 100.2C39.3649 100.185 39.3006 100.17 39.2434 100.156C39.2148 100.148 39.1791 100.134 39.1505 100.126C39.0075 100.068 39.0289 100.083 39.2291 100.163C39.2148 100.178 39.0004 100.039 38.9789 100.024C38.9503 100.009 38.9289 99.9873 38.9003 99.9727C38.7787 99.8848 38.8002 99.8994 38.9646 100.024C38.9503 100.031 38.7787 99.8408 38.7644 99.8262C38.6 99.6724 38.8431 99.8994 38.8073 99.8994C38.7573 99.8994 38.6358 99.6138 38.6072 99.5698C38.4428 99.2988 38.6787 99.8774 38.6072 99.5625C38.5857 99.4673 38.5571 99.3721 38.5357 99.2769C38.4714 99.0498 38.5714 99.3794 38.5428 99.3721C38.5357 99.3721 38.5357 99.167 38.5357 99.167C38.5357 99.1523 38.5357 99.1304 38.5357 99.1157C38.5357 98.9985 38.5357 98.8813 38.5357 98.7642C38.5357 97.4165 38.5357 96.0688 38.5357 94.7212C38.5357 90.4731 38.5357 86.2324 38.5357 81.9844C38.5357 80.6807 38.5357 79.377 38.5357 78.0806C38.5357 77.9707 38.5357 77.8608 38.5357 77.751C38.5357 77.707 38.5357 77.6558 38.5357 77.6191C38.5285 77.3188 38.5357 77.7217 38.5142 77.707C38.4928 77.6924 38.5714 77.4434 38.5786 77.4141C38.5857 77.3848 38.6 77.3481 38.6072 77.3188C38.6644 77.1724 38.6501 77.1943 38.5714 77.3994C38.55 77.3774 38.7359 77.0991 38.7573 77.0625C38.9003 76.8208 38.7144 77.1431 38.7073 77.1284C38.7001 77.1138 38.886 76.938 38.9003 76.9233C39.1076 76.689 38.6358 77.0771 38.9003 76.916C38.9789 76.8647 39.0647 76.8208 39.1433 76.7695C39.4078 76.6011 38.8431 76.8428 39.1505 76.7695C39.2148 76.7549 39.272 76.7329 39.3363 76.7183C39.3649 76.7109 39.4007 76.7036 39.4293 76.6963C39.5865 76.667 39.5579 76.6743 39.3363 76.7036C39.3363 76.6963 39.5365 76.6963 39.5365 76.6963C39.6008 76.6963 39.6652 76.6963 39.7295 76.6963C42.9178 76.6963 46.1061 76.6963 49.2944 76.6963C52.8187 76.6963 56.3429 76.6963 59.8672 76.6963C60.0745 76.6963 60.2747 76.6963 60.482 76.6963C61.2326 76.6963 61.9475 76.0225 61.9117 75.2314C61.8617 74.4331 61.2684 73.7593 60.4677 73.7593ZM70.4329 47.2676C71.4695 47.2676 72.4989 47.2676 73.5354 47.2676C76.0017 47.2676 78.4751 47.2676 80.9414 47.2676C83.9367 47.2676 86.9391 47.2676 89.9344 47.2676C92.5151 47.2676 95.0957 47.2676 97.6764 47.2676C98.9345 47.2676 100.193 47.3042 101.451 47.2676C101.472 47.2676 101.487 47.2676 101.508 47.2676C102.259 47.2676 102.974 46.5938 102.938 45.8027C102.902 45.0117 102.309 44.3379 101.508 44.3379C100.471 44.3379 99.4421 44.3379 98.4055 44.3379C95.9393 44.3379 93.4658 44.3379 90.9995 44.3379C88.0043 44.3379 85.0018 44.3379 82.0066 44.3379C79.4259 44.3379 76.8452 44.3379 74.2646 44.3379C73.0064 44.3379 71.7483 44.3013 70.4901 44.3379C70.4687 44.3379 70.4544 44.3379 70.4329 44.3379C69.6823 44.3379 68.9674 45.0117 69.0032 45.8027C69.0389 46.5938 69.6323 47.2676 70.4329 47.2676ZM90.2775 57.8438C88.0329 57.8438 85.7953 57.8438 83.5507 57.8438C79.9906 57.8438 76.4378 57.8438 72.8777 57.8438C72.0628 57.8438 71.2479 57.8438 70.4329 57.8438C69.6823 57.8438 68.9674 58.5176 69.0032 59.3086C69.0389 60.0996 69.6323 60.7734 70.4329 60.7734C72.6776 60.7734 74.9151 60.7734 77.1598 60.7734C80.7198 60.7734 84.2727 60.7734 87.8327 60.7734C88.6476 60.7734 89.4626 60.7734 90.2775 60.7734C91.0281 60.7734 91.743 60.0996 91.7073 59.3086C91.6715 58.5176 91.0782 57.8438 90.2775 57.8438ZM70.4329 83.1562C71.4695 83.1562 72.4989 83.1562 73.5354 83.1562C76.0017 83.1562 78.4751 83.1562 80.9414 83.1562C83.9367 83.1562 86.9391 83.1562 89.9344 83.1562C92.5151 83.1562 95.0957 83.1562 97.6764 83.1562C98.9345 83.1562 100.193 83.1929 101.451 83.1562C101.472 83.1562 101.487 83.1562 101.508 83.1562C102.259 83.1562 102.974 82.4824 102.938 81.6914C102.902 80.9004 102.309 80.2266 101.508 80.2266C100.471 80.2266 99.4421 80.2266 98.4055 80.2266C95.9393 80.2266 93.4658 80.2266 90.9995 80.2266C88.0043 80.2266 85.0018 80.2266 82.0066 80.2266C79.4259 80.2266 76.8452 80.2266 74.2646 80.2266C73.0064 80.2266 71.7483 80.1899 70.4901 80.2266C70.4687 80.2266 70.4544 80.2266 70.4329 80.2266C69.6823 80.2266 68.9674 80.9004 69.0032 81.6914C69.0389 82.4824 69.6323 83.1562 70.4329 83.1562ZM90.2775 93.7324C88.0329 93.7324 85.7953 93.7324 83.5507 93.7324C79.9906 93.7324 76.4378 93.7324 72.8777 93.7324C72.0628 93.7324 71.2479 93.7324 70.4329 93.7324C69.6823 93.7324 68.9674 94.4062 69.0032 95.1973C69.0389 95.9883 69.6323 96.6621 70.4329 96.6621C72.6776 96.6621 74.9151 96.6621 77.1598 96.6621C80.7198 96.6621 84.2727 96.6621 87.8327 96.6621C88.6476 96.6621 89.4626 96.6621 90.2775 96.6621C91.0281 96.6621 91.743 95.9883 91.7073 95.1973C91.6715 94.4062 91.0782 93.7324 90.2775 93.7324Z" fill="black"/>
</svg>
