<svg width="138" height="140" viewBox="0 0 138 140" fill="none" xmlns="http://www.w3.org/2000/svg">
<ellipse cx="69.0138" cy="70" rx="68.3219" ry="70" fill="#EDB021"/>
<path d="M69.0137 34.3334C49.2589 34.3334 33.2261 50.76 33.2261 71C33.2261 91.24 49.2589 107.667 69.0137 107.667C88.7685 107.667 104.801 91.24 104.801 71C104.801 50.76 88.7685 34.3334 69.0137 34.3334ZM69.0137 104.733C50.8336 104.733 36.0891 89.6267 36.0891 71C36.0891 52.3734 50.8336 37.2667 69.0137 37.2667C87.1939 37.2667 101.938 52.3734 101.938 71C101.938 89.6267 87.1939 104.733 69.0137 104.733Z" fill="black"/>
<path d="M62.2857 81.7067L50.5473 69.8267L48.5432 71.88L62.2857 85.96L89.4843 58.0934L87.4802 56.04L62.2857 81.7067Z" fill="black"/>
</svg>
