<svg width="137" height="140" viewBox="0 0 137 140" fill="none" xmlns="http://www.w3.org/2000/svg">
<ellipse cx="68.6028" cy="70" rx="68.3219" ry="70" fill="#EDB021"/>
<g clip-path="url(#clip0_666_2296)">
<path d="M101.488 92.5561L86.61 77.3168C86.8539 76.7999 86.9658 76.2279 86.935 75.6545C86.9042 75.0812 86.7318 74.5252 86.4339 74.0388C86.1361 73.5524 85.7226 73.1515 85.2321 72.8736C84.7417 72.5957 84.1904 72.45 83.6299 72.4501C83.1941 72.449 82.7623 72.5365 82.3597 72.7076C81.9571 72.8787 81.5917 73.1299 81.2845 73.4468L78.9677 75.8183L74.2264 70.9403L85.1584 58.8173L88.3668 56.2613C89.0387 57.0548 89.6221 57.9227 90.1061 58.8488C91.4175 61.4863 91.9668 64.4525 91.6895 67.3988C91.6686 67.643 91.7262 67.8875 91.8534 68.0951C91.9806 68.3026 92.1706 68.462 92.3943 68.5488C92.618 68.6357 92.8633 68.6453 93.0928 68.5762C93.3224 68.5071 93.5236 68.3631 93.6659 68.1661C95.5177 65.636 96.6159 62.6112 96.8282 59.4563C97.3443 50.8906 90.1676 44.6063 88.2153 43.3778L87.8485 43.1528C86.8111 42.5527 85.8368 41.8447 84.941 41.0401C83.3442 39.4042 81.9002 37.6189 80.6279 35.7076C80.5368 35.5712 80.4174 35.4572 80.2784 35.3735C80.1393 35.2897 79.984 35.2384 79.8234 35.2232C79.6628 35.2079 79.5009 35.2291 79.3492 35.2852C79.1975 35.3413 79.0598 35.431 78.9457 35.5478L71.7558 42.9143C71.6203 43.0535 71.5228 43.2267 71.473 43.4166C71.4232 43.6065 71.4228 43.8064 71.4719 43.9965C71.521 44.1865 71.6179 44.3601 71.7528 44.4999C71.8878 44.6396 72.0562 44.7407 72.2411 44.7931C74.4811 45.4253 78.3242 46.9913 79.1104 48.5033C79.8248 49.9711 79.9501 51.667 79.4596 53.2283L67.7238 64.2848L56.7238 53.0078L55.2326 45.4051C55.1781 45.1208 55.0213 44.8678 54.7934 44.6963L43.9229 36.7313C43.7066 36.573 43.4426 36.4984 43.1776 36.5206C42.9127 36.5429 42.664 36.6605 42.4757 36.8528L36.2521 43.2248C36.0633 43.417 35.9475 43.6717 35.9254 43.9434C35.9032 44.2151 35.9762 44.486 36.1313 44.7076L43.9054 55.8451C44.0723 56.079 44.3194 56.2398 44.5971 56.2951L52.0176 57.8251L62.8244 68.8973L35.5054 94.6688C34.5593 95.5589 33.8981 96.7213 33.6084 98.0035C33.3188 99.2856 33.4143 100.627 33.8824 101.853C34.3506 103.078 35.1695 104.13 36.2316 104.87C37.2937 105.61 38.5494 106.004 39.8339 106H39.9876C40.8404 105.984 41.6811 105.79 42.4584 105.43C43.2358 105.07 43.9335 104.552 44.5093 103.907L69.7157 75.9398L74.2835 80.6198L71.9688 82.9913C71.4064 83.5523 71.058 84.3005 70.9863 85.1013C70.9146 85.9022 71.1244 86.7029 71.5778 87.3593C72.0312 88.0157 72.6985 88.4847 73.4595 88.6817C74.2205 88.8788 75.0251 88.7909 75.7285 88.4341L90.62 103.691C91.329 104.443 92.1771 105.043 93.1149 105.456C94.0526 105.869 95.0612 106.086 96.0818 106.095C97.1024 106.104 98.1145 105.905 99.0591 105.509C100.004 105.113 100.862 104.528 101.584 103.789C102.305 103.05 102.876 102.17 103.262 101.202C103.649 100.235 103.843 99.1977 103.835 98.152C103.826 97.1064 103.614 96.073 103.211 95.1122C102.808 94.1515 102.222 93.2825 101.488 92.5561ZM74.5843 43.1978L79.5826 38.0791C80.7402 39.7509 82.0497 41.3066 83.4938 42.7253C84.4939 43.6229 85.5807 44.4137 86.7373 45.0856L87.0777 45.2948C88.6831 46.2983 95.0846 51.9436 94.6388 59.3101C94.5512 60.6892 94.2587 62.0466 93.7713 63.3353C93.3261 59.7809 91.7419 56.4785 89.2672 53.9461C89.0782 53.7516 88.8262 53.6346 88.5589 53.6172C88.2915 53.5998 88.0272 53.6832 87.8156 53.8516L84.5061 56.4886L81.6513 53.5636C82.202 51.522 81.9882 49.3432 81.0517 47.4548C80.002 45.4366 76.6926 43.9628 74.5843 43.1978ZM80.3622 55.4266L82.8898 58.0163L72.6562 69.3653L69.2611 65.8936L80.3622 55.4266ZM42.8908 102.382C42.5142 102.803 42.058 103.142 41.5499 103.377C41.0418 103.612 40.4923 103.739 39.9349 103.75C39.3706 103.762 38.8098 103.658 38.2852 103.445C37.7607 103.231 37.283 102.913 36.8802 102.508C36.4835 102.098 36.1711 101.611 35.9616 101.075C35.7521 100.539 35.6498 99.9659 35.6606 99.3888C35.6715 98.8118 35.7953 98.2428 36.0248 97.7157C36.2543 97.1886 36.5847 96.7141 36.9966 96.3203L64.399 70.4768L68.1762 74.3311L42.8908 102.382ZM70.4931 73.4828C70.4594 73.4566 70.4242 73.4326 70.3877 73.4108L65.2928 68.2133C65.2716 68.1759 65.2481 68.1398 65.2225 68.1053L53.3638 55.9553C53.2071 55.7949 53.0078 55.6853 52.7906 55.6403L45.4734 54.1328L38.5162 44.1586L43.3805 39.1748L53.1178 46.3073L54.587 53.7998C54.6321 54.0223 54.7398 54.2264 54.8966 54.3871L66.8871 66.6721C66.9209 66.6982 66.9561 66.7222 66.9926 66.7441L71.8239 71.6941C71.8451 71.7315 71.8686 71.7676 71.8942 71.8021L77.3865 77.4451L76.6311 78.2191L75.8712 78.9998L70.4931 73.4828ZM75.0719 86.1728C74.8674 86.3606 74.6006 86.4611 74.3261 86.4535C74.0516 86.446 73.7904 86.331 73.5961 86.1322C73.4018 85.9334 73.2892 85.666 73.2815 85.3848C73.2737 85.1036 73.3714 84.83 73.5544 84.6203L76.664 81.4343L79.7605 78.2618L82.8767 75.0736C82.9764 74.9713 83.0949 74.8903 83.2253 74.8351C83.3557 74.7798 83.4954 74.7515 83.6365 74.7518C83.848 74.7529 84.0544 74.818 84.2299 74.9388C84.4054 75.0597 84.5422 75.2309 84.6231 75.431C84.704 75.6312 84.7254 75.8514 84.6847 76.064C84.644 76.2765 84.5429 76.4721 84.3941 76.6261L75.0719 86.1728ZM99.9335 102.101C98.8877 103.123 97.4976 103.694 96.0519 103.694C94.6063 103.694 93.2162 103.123 92.1704 102.101L77.4348 87.0053L85.1979 79.0493L99.9335 94.1468C100.963 95.2017 101.541 96.6321 101.541 98.1237C101.541 99.6152 100.963 101.046 99.9335 102.101ZM84.6643 84.3256C84.4572 84.1206 84.1798 84.0072 83.8919 84.0098C83.604 84.0124 83.3286 84.1307 83.125 84.3393C82.9214 84.5478 82.806 84.83 82.8035 85.125C82.801 85.42 82.9116 85.7041 83.1116 85.9163L97.0874 100.235C97.2945 100.44 97.5718 100.554 97.8597 100.551C98.1476 100.549 98.423 100.43 98.6266 100.222C98.8302 100.013 98.9457 99.7309 98.9482 99.4359C98.9507 99.1409 98.84 98.8567 98.64 98.6446L84.6643 84.3256Z" fill="black"/>
</g>
<defs>
<clipPath id="clip0_666_2296">
<rect width="70.274" height="72" fill="white" transform="translate(33.4658 34)"/>
</clipPath>
</defs>
</svg>
