<svg width="138" height="140" viewBox="0 0 138 140" fill="none" xmlns="http://www.w3.org/2000/svg">
<ellipse cx="68.9863" cy="70" rx="68.3219" ry="70" fill="#EDB021"/>
<g clip-path="url(#clip0_205_7260)">
<path d="M91.2504 33H50.0785C49.1103 33.0015 48.1821 33.4151 47.4974 34.1501C46.8128 34.8851 46.4276 35.8815 46.4261 36.9209V102.079C46.4276 103.119 46.8128 104.115 47.4974 104.85C48.1821 105.585 49.1103 105.998 50.0785 106H91.2504C92.2186 105.998 93.1468 105.585 93.8314 104.85C94.5161 104.115 94.9013 103.119 94.9027 102.079V36.9209C94.9013 35.8815 94.5161 34.8851 93.8314 34.1501C93.1468 33.4151 92.2186 33.0015 91.2504 33V33ZM92.9105 102.079C92.9098 102.552 92.7347 103.004 92.4235 103.338C92.1123 103.673 91.6905 103.861 91.2504 103.861H50.0785C49.6384 103.861 49.2165 103.673 48.9054 103.338C48.5942 103.004 48.419 102.552 48.4183 102.079V36.9209C48.419 36.4485 48.5942 35.9956 48.9054 35.6615C49.2165 35.3274 49.6384 35.1394 50.0785 35.1387H91.2504C91.6905 35.1394 92.1123 35.3274 92.4235 35.6615C92.7347 35.9956 92.9098 36.4485 92.9105 36.9209V102.079Z" fill="black"/>
<path d="M86.6019 38.7031H54.7269C54.1107 38.7039 53.52 38.967 53.0842 39.4348C52.6485 39.9025 52.4034 40.5367 52.4027 41.1982V46.9014C52.4034 47.5629 52.6485 48.1971 53.0842 48.6648C53.52 49.1326 54.1107 49.3957 54.7269 49.3965H86.6019C87.2181 49.3957 87.8089 49.1326 88.2446 48.6648C88.6803 48.1971 88.9254 47.5629 88.9261 46.9014V41.1982C88.9254 40.5367 88.6803 39.9025 88.2446 39.4348C87.8089 38.967 87.2181 38.7039 86.6019 38.7031ZM86.934 46.9014C86.934 46.9959 86.899 47.0866 86.8367 47.1534C86.7744 47.2203 86.69 47.2578 86.6019 47.2578H54.7269C54.6389 47.2578 54.5544 47.2203 54.4921 47.1534C54.4299 47.0866 54.3949 46.9959 54.3949 46.9014V41.1982C54.3949 41.1037 54.4299 41.013 54.4921 40.9462C54.5544 40.8794 54.6389 40.8418 54.7269 40.8418H86.6019C86.69 40.8418 86.7744 40.8794 86.8367 40.9462C86.899 41.013 86.934 41.1037 86.934 41.1982V46.9014ZM57.3832 56.0264H54.7269C54.1107 56.0271 53.52 56.2902 53.0842 56.758C52.6485 57.2258 52.4034 57.86 52.4027 58.5215V61.373C52.4034 62.0346 52.6485 62.6688 53.0842 63.1365C53.52 63.6043 54.1107 63.8674 54.7269 63.8682H57.3832C57.9994 63.8674 58.5901 63.6043 59.0259 63.1365C59.4616 62.6688 59.7067 62.0346 59.7074 61.373V58.5215C59.7067 57.86 59.4616 57.2258 59.0259 56.758C58.5901 56.2902 57.9994 56.0271 57.3832 56.0264ZM57.7152 61.373C57.7152 61.4676 57.6802 61.5582 57.618 61.6251C57.5557 61.6919 57.4712 61.7295 57.3832 61.7295H54.7269C54.6389 61.7295 54.5544 61.6919 54.4921 61.6251C54.4299 61.5582 54.3949 61.4676 54.3949 61.373V58.5215C54.3949 58.4269 54.4299 58.3363 54.4921 58.2694C54.5544 58.2026 54.6389 58.165 54.7269 58.165H57.3832C57.4712 58.165 57.5557 58.2026 57.618 58.2694C57.6802 58.3363 57.7152 58.4269 57.7152 58.5215V61.373ZM67.1223 56.0264H64.4661C63.8499 56.0271 63.2591 56.2902 62.8234 56.758C62.3877 57.2258 62.1426 57.86 62.1419 58.5215V61.373C62.1426 62.0346 62.3877 62.6688 62.8234 63.1365C63.2591 63.6043 63.8499 63.8674 64.4661 63.8682H67.1223C67.7385 63.8674 68.3293 63.6043 68.765 63.1365C69.2007 62.6688 69.4458 62.0346 69.4465 61.373V58.5215C69.4458 57.86 69.2007 57.2258 68.765 56.758C68.3293 56.2902 67.7385 56.0271 67.1223 56.0264ZM67.4544 61.373C67.4544 61.4676 67.4194 61.5582 67.3571 61.6251C67.2948 61.6919 67.2104 61.7295 67.1223 61.7295H64.4661C64.3781 61.7291 64.2939 61.6914 64.2317 61.6247C64.1695 61.5579 64.1344 61.4675 64.134 61.373V58.5215C64.1344 58.4271 64.1695 58.3366 64.2317 58.2699C64.2939 58.2031 64.3781 58.1654 64.4661 58.165H67.1223C67.2104 58.165 67.2948 58.2026 67.3571 58.2694C67.4194 58.3363 67.4544 58.4269 67.4544 58.5215V61.373ZM76.8628 56.0264H74.2065C73.5903 56.0271 72.9996 56.2902 72.5638 56.758C72.1281 57.2258 71.883 57.86 71.8823 58.5215V61.373C71.883 62.0346 72.1281 62.6688 72.5638 63.1365C72.9996 63.6043 73.5903 63.8674 74.2065 63.8682H76.8628C77.479 63.8674 78.0698 63.6043 78.5055 63.1365C78.9412 62.6688 79.1863 62.0346 79.187 61.373V58.5215C79.1863 57.86 78.9412 57.2258 78.5055 56.758C78.0698 56.2902 77.479 56.0271 76.8628 56.0264ZM77.1948 61.373C77.1945 61.4675 77.1594 61.5579 77.0972 61.6247C77.035 61.6914 76.9507 61.7291 76.8628 61.7295H74.2065C74.1185 61.7295 74.034 61.6919 73.9718 61.6251C73.9095 61.5582 73.8745 61.4676 73.8745 61.373V58.5215C73.8745 58.4269 73.9095 58.3363 73.9718 58.2694C74.034 58.2026 74.1185 58.165 74.2065 58.165H76.8628C76.9507 58.1654 77.035 58.2031 77.0972 58.2699C77.1594 58.3366 77.1945 58.4271 77.1948 58.5215V61.373ZM86.6019 56.0264H83.9457C83.3295 56.0271 82.7387 56.2902 82.303 56.758C81.8673 57.2258 81.6222 57.86 81.6215 58.5215V61.373C81.6222 62.0346 81.8673 62.6688 82.303 63.1365C82.7387 63.6043 83.3295 63.8674 83.9457 63.8682H86.6019C87.2181 63.8674 87.8089 63.6043 88.2446 63.1365C88.6803 62.6688 88.9254 62.0346 88.9261 61.373V58.5215C88.9254 57.86 88.6803 57.2258 88.2446 56.758C87.8089 56.2902 87.2181 56.0271 86.6019 56.0264ZM86.934 61.373C86.934 61.4676 86.899 61.5582 86.8367 61.6251C86.7744 61.6919 86.69 61.7295 86.6019 61.7295H83.9457C83.8576 61.7295 83.7732 61.6919 83.7109 61.6251C83.6486 61.5582 83.6136 61.4676 83.6136 61.373V58.5215C83.6136 58.4269 83.6486 58.3363 83.7109 58.2694C83.7732 58.2026 83.8576 58.165 83.9457 58.165H86.6019C86.69 58.165 86.7744 58.2026 86.8367 58.2694C86.899 58.3363 86.934 58.4269 86.934 58.5215V61.373ZM57.3832 68.2881H54.7269C54.1107 68.2888 53.52 68.552 53.0842 69.0197C52.6485 69.4875 52.4034 70.1217 52.4027 70.7832V73.6348C52.4034 74.2963 52.6485 74.9305 53.0842 75.3982C53.52 75.866 54.1107 76.1291 54.7269 76.1299H57.3832C57.9994 76.1291 58.5901 75.866 59.0259 75.3982C59.4616 74.9305 59.7067 74.2963 59.7074 73.6348V70.7832C59.7067 70.1217 59.4616 69.4875 59.0259 69.0197C58.5901 68.552 57.9994 68.2888 57.3832 68.2881ZM57.7152 73.6348C57.7152 73.7293 57.6802 73.82 57.618 73.8868C57.5557 73.9537 57.4712 73.9912 57.3832 73.9912H54.7269C54.6389 73.9912 54.5544 73.9537 54.4921 73.8868C54.4299 73.82 54.3949 73.7293 54.3949 73.6348V70.7832C54.3949 70.6887 54.4299 70.598 54.4921 70.5312C54.5544 70.4643 54.6389 70.4268 54.7269 70.4268H57.3832C57.4712 70.4268 57.5557 70.4643 57.618 70.5312C57.6802 70.598 57.7152 70.6887 57.7152 70.7832V73.6348ZM67.1223 68.2881H64.4661C63.8499 68.2888 63.2591 68.552 62.8234 69.0197C62.3877 69.4875 62.1426 70.1217 62.1419 70.7832V73.6348C62.1426 74.2963 62.3877 74.9305 62.8234 75.3982C63.2591 75.866 63.8499 76.1291 64.4661 76.1299H67.1223C67.7385 76.1291 68.3293 75.866 68.765 75.3982C69.2007 74.9305 69.4458 74.2963 69.4465 73.6348V70.7832C69.4458 70.1217 69.2007 69.4875 68.765 69.0197C68.3293 68.552 67.7385 68.2888 67.1223 68.2881ZM67.4544 73.6348C67.4544 73.7293 67.4194 73.82 67.3571 73.8868C67.2948 73.9537 67.2104 73.9912 67.1223 73.9912H64.4661C64.3781 73.9908 64.2939 73.9532 64.2317 73.8864C64.1695 73.8196 64.1344 73.7292 64.134 73.6348V70.7832C64.1344 70.6888 64.1695 70.5983 64.2317 70.5316C64.2939 70.4648 64.3781 70.4271 64.4661 70.4268H67.1223C67.2104 70.4268 67.2948 70.4643 67.3571 70.5312C67.4194 70.598 67.4544 70.6887 67.4544 70.7832V73.6348ZM76.8628 68.2881H74.2065C73.5903 68.2888 72.9996 68.552 72.5638 69.0197C72.1281 69.4875 71.883 70.1217 71.8823 70.7832V73.6348C71.883 74.2963 72.1281 74.9305 72.5638 75.3982C72.9996 75.866 73.5903 76.1291 74.2065 76.1299H76.8628C77.479 76.1291 78.0698 75.866 78.5055 75.3982C78.9412 74.9305 79.1863 74.2963 79.187 73.6348V70.7832C79.1863 70.1217 78.9412 69.4875 78.5055 69.0197C78.0698 68.552 77.479 68.2888 76.8628 68.2881ZM77.1948 73.6348C77.1945 73.7292 77.1594 73.8196 77.0972 73.8864C77.035 73.9532 76.9507 73.9908 76.8628 73.9912H74.2065C74.1185 73.9912 74.034 73.9537 73.9718 73.8868C73.9095 73.82 73.8745 73.7293 73.8745 73.6348V70.7832C73.8745 70.6887 73.9095 70.598 73.9718 70.5312C74.034 70.4643 74.1185 70.4268 74.2065 70.4268H76.8628C76.9507 70.4271 77.035 70.4648 77.0972 70.5316C77.1594 70.5983 77.1945 70.6888 77.1948 70.7832V73.6348ZM86.6019 68.2881H83.9457C83.3295 68.2888 82.7387 68.552 82.303 69.0197C81.8673 69.4875 81.6222 70.1217 81.6215 70.7832V73.6348C81.6222 74.2963 81.8673 74.9305 82.303 75.3982C82.7387 75.866 83.3295 76.1291 83.9457 76.1299H86.6019C87.2181 76.1291 87.8089 75.866 88.2446 75.3982C88.6803 74.9305 88.9254 74.2963 88.9261 73.6348V70.7832C88.9254 70.1217 88.6803 69.4875 88.2446 69.0197C87.8089 68.552 87.2181 68.2888 86.6019 68.2881ZM86.934 73.6348C86.934 73.7293 86.899 73.82 86.8367 73.8868C86.7744 73.9537 86.69 73.9912 86.6019 73.9912H83.9457C83.8576 73.9912 83.7732 73.9537 83.7109 73.8868C83.6486 73.82 83.6136 73.7293 83.6136 73.6348V70.7832C83.6136 70.6887 83.6486 70.598 83.7109 70.5312C83.7732 70.4643 83.8576 70.4268 83.9457 70.4268H86.6019C86.69 70.4268 86.7744 70.4643 86.8367 70.5312C86.899 70.598 86.934 70.6887 86.934 70.7832V73.6348ZM57.3832 80.5498H54.7269C54.1107 80.5506 53.52 80.8137 53.0842 81.2814C52.6485 81.7492 52.4034 82.3834 52.4027 83.0449V85.8965C52.4034 86.558 52.6485 87.1922 53.0842 87.66C53.52 88.1277 54.1107 88.3908 54.7269 88.3916H57.3832C57.9994 88.3908 58.5901 88.1277 59.0259 87.66C59.4616 87.1922 59.7067 86.558 59.7074 85.8965V83.0449C59.7067 82.3834 59.4616 81.7492 59.0259 81.2814C58.5901 80.8137 57.9994 80.5506 57.3832 80.5498ZM57.7152 85.8965C57.7152 85.991 57.6802 86.0817 57.618 86.1485C57.5557 86.2154 57.4712 86.2529 57.3832 86.2529H54.7269C54.6389 86.2529 54.5544 86.2154 54.4921 86.1485C54.4299 86.0817 54.3949 85.991 54.3949 85.8965V83.0449C54.3949 82.9504 54.4299 82.8597 54.4921 82.7929C54.5544 82.726 54.6389 82.6885 54.7269 82.6885H57.3832C57.4712 82.6885 57.5557 82.726 57.618 82.7929C57.6802 82.8597 57.7152 82.9504 57.7152 83.0449V85.8965ZM67.1223 80.5498H64.4661C63.8499 80.5506 63.2591 80.8137 62.8234 81.2814C62.3877 81.7492 62.1426 82.3834 62.1419 83.0449V85.8965C62.1426 86.558 62.3877 87.1922 62.8234 87.66C63.2591 88.1277 63.8499 88.3908 64.4661 88.3916H67.1223C67.7385 88.3908 68.3293 88.1277 68.765 87.66C69.2007 87.1922 69.4458 86.558 69.4465 85.8965V83.0449C69.4458 82.3834 69.2007 81.7492 68.765 81.2814C68.3293 80.8137 67.7385 80.5506 67.1223 80.5498ZM67.4544 85.8965C67.4544 85.991 67.4194 86.0817 67.3571 86.1485C67.2948 86.2154 67.2104 86.2529 67.1223 86.2529H64.4661C64.3781 86.2526 64.2939 86.2149 64.2317 86.1481C64.1695 86.0813 64.1344 85.9909 64.134 85.8965V83.0449C64.1344 82.9505 64.1695 82.8601 64.2317 82.7933C64.2939 82.7265 64.3781 82.6889 64.4661 82.6885H67.1223C67.2104 82.6885 67.2948 82.726 67.3571 82.7929C67.4194 82.8597 67.4544 82.9504 67.4544 83.0449V85.8965ZM76.8628 80.5498H74.2065C73.5903 80.5506 72.9996 80.8137 72.5638 81.2814C72.1281 81.7492 71.883 82.3834 71.8823 83.0449V85.8965C71.883 86.558 72.1281 87.1922 72.5638 87.66C72.9996 88.1277 73.5903 88.3908 74.2065 88.3916H76.8628C77.479 88.3908 78.0698 88.1277 78.5055 87.66C78.9412 87.1922 79.1863 86.558 79.187 85.8965V83.0449C79.1863 82.3834 78.9412 81.7492 78.5055 81.2814C78.0698 80.8137 77.479 80.5506 76.8628 80.5498ZM77.1948 85.8965C77.1945 85.9909 77.1594 86.0813 77.0972 86.1481C77.035 86.2149 76.9507 86.2526 76.8628 86.2529H74.2065C74.1185 86.2529 74.034 86.2154 73.9718 86.1485C73.9095 86.0817 73.8745 85.991 73.8745 85.8965V83.0449C73.8745 82.9504 73.9095 82.8597 73.9718 82.7929C74.034 82.726 74.1185 82.6885 74.2065 82.6885H76.8628C76.9507 82.6889 77.035 82.7265 77.0972 82.7933C77.1594 82.8601 77.1945 82.9505 77.1948 83.0449V85.8965ZM57.3832 92.8115H54.7269C54.1107 92.8123 53.52 93.0754 53.0842 93.5432C52.6485 94.0109 52.4034 94.6451 52.4027 95.3066V98.1582C52.4034 98.8197 52.6485 99.4539 53.0842 99.9217C53.52 100.389 54.1107 100.653 54.7269 100.653H57.3832C57.9994 100.653 58.5901 100.389 59.0259 99.9217C59.4616 99.4539 59.7067 98.8197 59.7074 98.1582V95.3066C59.7067 94.6451 59.4616 94.0109 59.0259 93.5432C58.5901 93.0754 57.9994 92.8123 57.3832 92.8115ZM57.7152 98.1582C57.7152 98.2527 57.6802 98.3434 57.618 98.4102C57.5557 98.4771 57.4712 98.5146 57.3832 98.5146H54.7269C54.6389 98.5146 54.5544 98.4771 54.4921 98.4102C54.4299 98.3434 54.3949 98.2527 54.3949 98.1582V95.3066C54.3949 95.2121 54.4299 95.1214 54.4921 95.0546C54.5544 94.9878 54.6389 94.9502 54.7269 94.9502H57.3832C57.4712 94.9502 57.5557 94.9878 57.618 95.0546C57.6802 95.1214 57.7152 95.2121 57.7152 95.3066V98.1582ZM67.1223 92.8115H64.4661C63.8499 92.8123 63.2591 93.0754 62.8234 93.5432C62.3877 94.0109 62.1426 94.6451 62.1419 95.3066V98.1582C62.1426 98.8197 62.3877 99.4539 62.8234 99.9217C63.2591 100.389 63.8499 100.653 64.4661 100.653H67.1223C67.7385 100.653 68.3293 100.389 68.765 99.9217C69.2007 99.4539 69.4458 98.8197 69.4465 98.1582V95.3066C69.4458 94.6451 69.2007 94.0109 68.765 93.5432C68.3293 93.0754 67.7385 92.8123 67.1223 92.8115ZM67.4544 98.1582C67.4544 98.2527 67.4194 98.3434 67.3571 98.4102C67.2948 98.4771 67.2104 98.5146 67.1223 98.5146H64.4661C64.3781 98.5143 64.2939 98.4766 64.2317 98.4098C64.1695 98.3431 64.1344 98.2526 64.134 98.1582V95.3066C64.1344 95.2122 64.1695 95.1218 64.2317 95.055C64.2939 94.9882 64.3781 94.9506 64.4661 94.9502H67.1223C67.2104 94.9502 67.2948 94.9878 67.3571 95.0546C67.4194 95.1214 67.4544 95.2121 67.4544 95.3066V98.1582ZM76.8628 92.8115H74.2065C73.5903 92.8123 72.9996 93.0754 72.5638 93.5432C72.1281 94.0109 71.883 94.6451 71.8823 95.3066V98.1582C71.883 98.8197 72.1281 99.4539 72.5638 99.9217C72.9996 100.389 73.5903 100.653 74.2065 100.653H76.8628C77.479 100.653 78.0698 100.389 78.5055 99.9217C78.9412 99.4539 79.1863 98.8197 79.187 98.1582V95.3066C79.1863 94.6451 78.9412 94.0109 78.5055 93.5432C78.0698 93.0754 77.479 92.8123 76.8628 92.8115ZM77.1948 98.1582C77.1945 98.2526 77.1594 98.3431 77.0972 98.4098C77.035 98.4766 76.9507 98.5143 76.8628 98.5146H74.2065C74.1185 98.5146 74.034 98.4771 73.9718 98.4102C73.9095 98.3434 73.8745 98.2527 73.8745 98.1582V95.3066C73.8745 95.2121 73.9095 95.1214 73.9718 95.0546C74.034 94.9878 74.1185 94.9502 74.2065 94.9502H76.8628C76.9507 94.9506 77.035 94.9882 77.0972 95.055C77.1594 95.1218 77.1945 95.2122 77.1948 95.3066V98.1582ZM86.6019 80.5498H83.9457C83.3295 80.5506 82.7387 80.8137 82.303 81.2814C81.8673 81.7492 81.6222 82.3834 81.6215 83.0449V98.1582C81.6222 98.8197 81.8673 99.4539 82.303 99.9217C82.7387 100.389 83.3295 100.653 83.9457 100.653H86.6019C87.2181 100.653 87.8089 100.389 88.2446 99.9217C88.6803 99.4539 88.9254 98.8197 88.9261 98.1582V83.0449C88.9254 82.3834 88.6803 81.7492 88.2446 81.2814C87.8089 80.8137 87.2181 80.5506 86.6019 80.5498ZM86.934 98.1582C86.934 98.2527 86.899 98.3434 86.8367 98.4102C86.7744 98.4771 86.69 98.5146 86.6019 98.5146H83.9457C83.8576 98.5146 83.7732 98.4771 83.7109 98.4102C83.6486 98.3434 83.6136 98.2527 83.6136 98.1582V83.0449C83.6136 82.9504 83.6486 82.8597 83.7109 82.7929C83.7732 82.726 83.8576 82.6885 83.9457 82.6885H86.6019C86.69 82.6885 86.7744 82.726 86.8367 82.7929C86.899 82.8597 86.934 82.9504 86.934 83.0449V98.1582Z" fill="black"/>
</g>
<defs>
<clipPath id="clip0_205_7260">
<rect width="68" height="73" fill="white" transform="translate(36.6644 33)"/>
</clipPath>
</defs>
</svg>
