<svg width="137" height="140" viewBox="0 0 137 140" fill="none" xmlns="http://www.w3.org/2000/svg">
<ellipse cx="68.3974" cy="70" rx="68.3219" ry="70" fill="#EDB021"/>
<path d="M86.8404 44.4523C91.9547 48.757 95.5766 54.65 97.0254 61.2703C98.3728 67.4304 97.7933 74.0804 95.2869 79.8546C90.5638 90.8242 79.7124 98.0382 67.9917 97.8749C56.4013 97.7117 45.5934 90.2453 41.2325 79.2015C39.0158 73.5757 38.4653 67.3265 39.7402 61.389C40.9862 55.6 43.8983 50.2711 48.0708 46.1593C52.1998 42.0773 57.459 39.3312 63.0948 38.2476C69.7447 36.9859 76.7713 38.1734 82.6824 41.5578C84.1312 42.4039 85.5365 43.3687 86.8404 44.4523C87.304 44.8382 87.927 44.8976 88.3762 44.4523C88.7673 44.0664 88.8253 43.25 88.3762 42.8789C82.5086 38.0101 75.1487 35.3531 67.5715 35.5609C61.3272 35.7242 55.1699 37.8171 50.0846 41.5578C45.0863 45.2539 41.218 50.3453 38.9724 56.2234C36.6688 62.2945 36.2631 69.1078 37.7554 75.4312C40.653 87.7812 50.838 97.5632 63.0803 99.6413C69.4115 100.71 75.9166 99.8343 81.7407 97.0585C87.2606 94.4312 91.9836 90.082 95.2 84.7828C98.5467 79.246 100.184 72.6554 99.8506 66.1539C99.4739 58.8656 96.6777 51.8742 91.9547 46.4117C90.8536 45.1351 89.6511 43.9625 88.3617 42.8789C87.8981 42.4929 87.2751 42.4336 86.826 42.8789C86.4493 43.2648 86.3913 44.0664 86.8404 44.4523ZM91.0419 97.1921C92.737 98.9289 94.4176 100.651 96.1127 102.387C97.0979 103.397 98.6336 101.823 97.6484 100.814C95.9533 99.0773 94.2727 97.3554 92.5776 95.6187C91.5925 94.5945 90.0568 96.1679 91.0419 97.1921ZM44.217 95.6187C42.5219 97.3554 40.8413 99.0773 39.1462 100.814C38.1611 101.823 39.6968 103.397 40.682 102.387C42.377 100.651 44.0576 98.9289 45.7527 97.1921C46.7379 96.1679 45.2022 94.5945 44.217 95.6187Z" fill="black"/>
<path d="M87.6083 65.8867C82.6679 65.8867 77.7275 65.8867 72.8017 65.8867C71.4108 65.8867 70.1359 65.2633 69.6578 63.8383C69.4115 63.1109 69.4984 62.2945 69.4984 61.5375C69.4984 58.4648 69.4984 55.3773 69.4984 52.3047C69.4984 49.8258 69.4984 47.3469 69.4984 44.868C69.4984 43.4281 67.3252 43.4281 67.3252 44.868C67.3252 50.3008 67.3252 55.7188 67.3252 61.1516C67.3252 61.8789 67.2818 62.6359 67.3542 63.3633C67.644 66.0648 69.8317 68.0687 72.4684 68.1281C74.772 68.1727 77.0901 68.1281 79.3937 68.1281C82.1319 68.1281 84.8846 68.1281 87.6228 68.1281C89.0136 68.1133 89.0136 65.8867 87.6083 65.8867Z" fill="black"/>
<path d="M92.4763 33.2009C95.7796 35.9767 98.4453 39.3908 100.372 43.3244C100.995 44.6009 102.879 43.4728 102.256 42.1962C100.271 38.1291 97.4602 34.5072 94.0265 31.6127C93.5629 31.2267 92.9399 31.1673 92.4908 31.6127C92.0851 32.0134 92.0127 32.815 92.4763 33.2009ZM42.7828 31.6127C39.3492 34.5072 36.5385 38.1291 34.5537 42.1962C33.9307 43.4728 35.7996 44.6009 36.4371 43.3244C38.3495 39.3908 41.0153 35.9767 44.3185 33.2009C44.7821 32.815 44.6952 32.0283 44.3185 31.6275C43.8839 31.1525 43.2319 31.2416 42.7828 31.6127Z" fill="black"/>
</svg>
