<svg width="50" height="50" viewBox="0 0 50 50" fill="none" xmlns="http://www.w3.org/2000/svg">
<g clip-path="url(#clip0_611_4864)">
<path d="M25 41.6665C29.4202 41.6665 33.6595 39.9106 36.7851 36.785C39.9107 33.6593 41.6666 29.4201 41.6666 24.9998C41.6666 20.5796 39.9107 16.3403 36.7851 13.2147C33.6595 10.0891 29.4202 8.33317 25 8.33317C20.5797 8.33317 16.3405 10.0891 13.2148 13.2147C10.0892 16.3403 8.33329 20.5796 8.33329 24.9998C8.33329 29.4201 10.0892 33.6593 13.2148 36.785C16.3405 39.9106 20.5797 41.6665 25 41.6665ZM25 45.8332C13.4937 45.8332 4.16663 36.5061 4.16663 24.9998C4.16663 13.4936 13.4937 4.1665 25 4.1665C36.5062 4.1665 45.8333 13.4936 45.8333 24.9998C45.8333 36.5061 36.5062 45.8332 25 45.8332ZM18.5208 27.4373L13.3166 25.8144C12.1916 25.4707 12.1854 24.6957 13.5687 24.1394L33.8458 16.3061C35.0229 15.8269 35.6895 16.4332 35.3083 17.9519L31.8562 34.2436C31.6145 35.404 30.9166 35.6811 29.9479 35.1457L24.6333 31.2123L22.1562 33.604C21.902 33.8498 21.6958 34.0603 21.3041 34.1123C20.9145 34.1665 20.5937 34.0498 20.3583 33.404L18.5458 27.4228L18.5208 27.4394V27.4373Z" fill="#1C222A"/>
</g>
<defs>
<clipPath id="clip0_611_4864">
<rect width="50" height="50" fill="white"/>
</clipPath>
</defs>
</svg>
