<svg width="50" height="50" viewBox="0 0 50 50" fill="none" xmlns="http://www.w3.org/2000/svg">
<path d="M31.3958 4.1665H18.6041C6.93746 4.1665 4.16663 6.93734 4.16663 18.604V31.3957C4.16663 43.0623 6.93746 45.8332 18.6041 45.8332H31.3958C43.0625 45.8332 45.8333 43.0623 45.8333 31.3957V18.604C45.8333 6.93734 43.0625 4.1665 31.3958 4.1665ZM37.8125 33.8957H34.7708C33.625 33.8957 33.2708 32.9582 31.25 30.8957C29.4166 29.1665 28.625 28.9165 28.1875 28.9165C27.5833 28.9165 27.3958 29.0832 27.3958 29.9582V32.6873C27.3958 33.4165 27.1666 33.8748 25.2291 33.8748C22.0208 33.8748 18.4583 31.9165 15.9583 28.3123C12.1875 23.0207 11.1666 19.0207 11.1666 18.229C11.1666 17.7915 11.3125 17.3748 12.1875 17.3748H15.25C16.0208 17.3748 16.3125 17.7082 16.6041 18.5415C18.1041 22.9165 20.6041 26.6665 21.625 26.6665C22.0208 26.6665 22.1875 26.479 22.1875 25.5207V21.0415C22.0833 18.9998 20.9791 18.8123 20.9791 18.0832C20.9791 17.7082 21.2708 17.3748 21.75 17.3748H26.5208C27.1666 17.3748 27.3958 17.7082 27.3958 18.4998V24.5207C27.3958 25.1665 27.6666 25.3957 27.875 25.3957C28.25 25.3957 28.5833 25.1665 29.2708 24.4582C31.4583 22.0207 33.0208 18.2498 33.0208 18.2498C33.2291 17.8123 33.5625 17.3957 34.375 17.3957H37.3541C38.2708 17.3957 38.4791 17.8748 38.2708 18.5207C37.8958 20.2915 34.1875 25.5207 34.2291 25.5207C33.8958 26.0415 33.7708 26.2707 34.2291 26.8748C34.5416 27.3123 35.6041 28.229 36.3125 29.0415C37.6041 30.5207 38.6041 31.7498 38.875 32.604C39.1041 33.4582 38.6875 33.8957 37.8125 33.8957Z" fill="#1C222A"/>
</svg>
