<svg width="50" height="50" viewBox="0 0 50 50" fill="none" xmlns="http://www.w3.org/2000/svg">
<g clip-path="url(#clip0_611_4861)">
<path d="M15.1103 38.529L16.6187 39.4102C19.1623 40.8937 22.0553 41.6725 24.9999 41.6665C28.2963 41.6665 31.5186 40.689 34.2594 38.8577C37.0003 37.0263 39.1365 34.4233 40.3979 31.3779C41.6594 28.3324 41.9894 24.9813 41.3464 21.7483C40.7033 18.5153 39.1159 15.5456 36.785 13.2147C34.4542 10.8838 31.4845 9.2965 28.2514 8.65341C25.0184 8.01033 21.6673 8.34038 18.6219 9.60184C15.5764 10.8633 12.9735 12.9995 11.1421 15.7403C9.31074 18.4811 8.33326 21.7035 8.33326 24.9998C8.33326 27.9915 9.11868 30.8602 10.5916 33.3832L11.4708 34.8915L10.1103 39.8936L15.1103 38.529ZM4.17493 45.8332L6.99159 35.4832C5.13563 32.3016 4.16054 28.6831 4.16659 24.9998C4.16659 13.4936 13.4937 4.1665 24.9999 4.1665C36.5062 4.1665 45.8333 13.4936 45.8333 24.9998C45.8333 36.5061 36.5062 45.8332 24.9999 45.8332C21.3182 45.8391 17.7013 44.8648 14.5208 43.0102L4.17493 45.8332ZM17.4812 15.2248C17.7603 15.204 18.0416 15.204 18.3208 15.2165C18.4333 15.2248 18.5458 15.2373 18.6583 15.2498C18.9895 15.2873 19.3541 15.4894 19.477 15.7686C20.0978 17.1769 20.702 18.5957 21.2853 20.0186C21.4145 20.3352 21.3374 20.7415 21.0916 21.1373C20.9225 21.405 20.7396 21.6637 20.5437 21.9123C20.3083 22.2144 19.802 22.7686 19.802 22.7686C19.802 22.7686 19.5958 23.0144 19.6749 23.3207C19.7041 23.4373 19.7999 23.6061 19.8874 23.7477L20.0103 23.9457C20.5437 24.8352 21.2603 25.7373 22.1353 26.5873C22.3853 26.829 22.6291 27.0769 22.8916 27.3082C23.8666 28.1686 24.9708 28.8707 26.1624 29.3915L26.1728 29.3957C26.3499 29.4727 26.4395 29.5144 26.6978 29.6248C26.827 29.679 26.9603 29.7269 27.0958 29.7623C27.2357 29.798 27.3831 29.7913 27.5192 29.743C27.6553 29.6948 27.774 29.6073 27.8603 29.4915C29.3687 27.6644 29.5062 27.5457 29.5187 27.5457V27.5498C29.6235 27.4521 29.748 27.3779 29.8838 27.3323C30.0196 27.2866 30.1636 27.2706 30.3062 27.2852C30.4312 27.2936 30.5583 27.3165 30.6749 27.3686C31.7812 27.8748 33.5916 28.6644 33.5916 28.6644L34.8041 29.2082C35.0083 29.3061 35.1937 29.5373 35.1999 29.7602C35.2083 29.8998 35.2208 30.1248 35.1728 30.5373C35.1062 31.0769 34.9437 31.7248 34.7812 32.0644C34.6699 32.2962 34.5222 32.5086 34.3437 32.6936C34.1335 32.9143 33.9033 33.1152 33.6562 33.2936C33.5707 33.3579 33.4839 33.4204 33.3958 33.4811C33.1366 33.6455 32.8704 33.7984 32.5978 33.9394C32.0615 34.2243 31.469 34.3879 30.8624 34.4186C30.477 34.4394 30.0916 34.4686 29.7041 34.4477C29.6874 34.4477 28.5208 34.2665 28.5208 34.2665C25.5588 33.4874 22.8195 32.0279 20.5208 30.004C20.0499 29.5894 19.6145 29.1436 19.1687 28.6998C17.3145 26.8561 15.9145 24.8665 15.0645 22.9873C14.6294 22.065 14.3944 21.0611 14.3749 20.0415C14.3663 18.7766 14.7798 17.545 15.5499 16.5415C15.702 16.3457 15.8458 16.1415 16.0937 15.9061C16.3583 15.6561 16.5249 15.5227 16.7062 15.4311C16.9472 15.3103 17.2101 15.2395 17.4791 15.2227L17.4812 15.2248Z" fill="#1C222A"/>
</g>
<defs>
<clipPath id="clip0_611_4861">
<rect width="50" height="50" fill="white"/>
</clipPath>
</defs>
</svg>
