<svg width="50" height="50" viewBox="0 0 50 50" fill="none" xmlns="http://www.w3.org/2000/svg">
<path d="M25.4297 43.8477C19.8535 43.6719 14.5507 43.5352 9.24801 43.3301C8.10543 43.2813 6.94332 43.1055 5.83004 42.8418C3.7402 42.3536 2.29489 41.0938 1.5527 39.0332C0.956996 37.3731 0.742152 35.6641 0.585902 33.9258C0.244105 29.8438 0.244105 25.7618 0.410121 21.6797C0.507777 19.375 0.566371 17.0508 1.18161 14.8145C1.5527 13.4766 2.00192 12.168 3.0859 11.2012C4.22848 10.1758 5.56637 9.56058 7.08981 9.49222C11.2695 9.28714 15.4394 9.03324 19.6191 8.99417C25.2441 8.93558 30.8789 9.0137 36.5039 9.12113C38.9355 9.16995 41.3867 9.29691 43.7988 9.60941C46.0058 9.90238 47.6562 11.1328 48.5351 13.2813C49.2089 14.9317 49.4629 16.6602 49.6093 18.418C49.9902 22.8223 50 27.2266 49.7851 31.6309C49.6777 33.8672 49.5703 36.1133 48.9355 38.2911C48.2129 40.7911 46.6797 42.4414 44.1211 43.0078C43.125 43.2227 42.0898 43.3008 41.0742 43.3399C35.7617 43.5254 30.4589 43.6914 25.4297 43.8477ZM20.0293 32.7442C24.4824 30.4395 28.8867 28.1543 33.3789 25.8203C28.8964 23.4766 24.4922 21.1817 20.0293 18.8477C20.0293 23.5059 20.0293 28.086 20.0293 32.7442Z" fill="#1C222A"/>
</svg>
